# Blender v2.77 (sub 0) OBJ File: 'untitled.blend'
# www.blender.org
mtllib cylinderAsHole.mtl
o Plane
v -0.500000 0.000000 0.501000
v 0.500000 0.000000 0.501000
v -0.500000 1.000000 0.501000
v 0.500000 1.000000 0.501000
vt 0.9999 0.0001
vt 0.0001 0.9999
vt 0.0001 0.0001
vt 0.9999 0.9999
vn 0.0000 0.0000 1.0000
usemtl Material.003
s off
f 2/1/1 3/2/1 1/3/1
f 2/1/1 4/4/1 3/2/1
o Cylinder_Cylinder.001
v 0.000000 1.000000 -0.500000
v 0.000000 1.000000 0.500000
v 0.097545 0.990393 -0.500000
v 0.097545 0.990393 0.500000
v 0.191342 0.961940 -0.500000
v 0.191342 0.961940 0.500000
v 0.277785 0.915735 -0.500000
v 0.277785 0.915735 0.500000
v 0.353553 0.853553 -0.500000
v 0.353553 0.853553 0.500000
v 0.415735 0.777785 -0.500000
v 0.415735 0.777785 0.500000
v 0.461940 0.691342 -0.500000
v 0.461940 0.691342 0.500000
v 0.490393 0.597545 -0.500000
v 0.490393 0.597545 0.500000
v 0.500000 0.500000 -0.500000
v 0.500000 0.500000 0.500000
v 0.490393 0.402455 -0.500000
v 0.490393 0.402455 0.500000
v 0.461940 0.308658 -0.500000
v 0.461940 0.308658 0.500000
v 0.415735 0.222215 -0.500000
v 0.415735 0.222215 0.500000
v 0.353553 0.146447 -0.500000
v 0.353553 0.146447 0.500000
v 0.277785 0.084265 -0.500000
v 0.277785 0.084265 0.500000
v 0.191342 0.038060 -0.500000
v 0.191342 0.038060 0.500000
v 0.097545 0.009607 -0.500000
v 0.097545 0.009607 0.500000
v -0.000000 0.000000 -0.500000
v -0.000000 0.000000 0.500000
v -0.097545 0.009607 -0.500000
v -0.097545 0.009607 0.500000
v -0.191342 0.038060 -0.500000
v -0.191342 0.038060 0.500000
v -0.277785 0.084265 -0.500000
v -0.277785 0.084265 0.500000
v -0.353554 0.146447 -0.500000
v -0.353554 0.146447 0.500000
v -0.415735 0.222215 -0.500000
v -0.415735 0.222215 0.500000
v -0.461940 0.308659 -0.500000
v -0.461940 0.308659 0.500000
v -0.490393 0.402455 -0.500000
v -0.490393 0.402455 0.500000
v -0.500000 0.500000 -0.500000
v -0.500000 0.500000 0.500000
v -0.490393 0.597546 -0.500000
v -0.490393 0.597546 0.500000
v -0.461940 0.691342 -0.500000
v -0.461940 0.691342 0.500000
v -0.415734 0.777786 -0.500000
v -0.415734 0.777786 0.500000
v -0.353553 0.853554 -0.500000
v -0.353553 0.853554 0.500000
v -0.277785 0.915735 -0.500000
v -0.277785 0.915735 0.500000
v -0.191341 0.961940 -0.500000
v -0.191341 0.961940 0.500000
v -0.097544 0.990393 -0.500000
v -0.097544 0.990393 0.500000
vt 1.0000 0.0000
vt 0.0000 1.0000
vt 0.0000 0.0000
vt 1.0000 0.0000
vt 0.0000 1.0000
vt 0.0000 0.0000
vt 1.0000 0.0000
vt 0.0000 1.0000
vt 0.0000 0.0000
vt 1.0000 0.0000
vt 0.0000 1.0000
vt 0.0000 0.0000
vt 1.0000 0.0000
vt 0.0000 1.0000
vt 0.0000 0.0000
vt 1.0000 0.0000
vt 0.0000 1.0000
vt 0.0000 0.0000
vt 1.0000 0.0000
vt 0.0000 1.0000
vt 0.0000 0.0000
vt 1.0000 0.0000
vt 0.0000 1.0000
vt 0.0000 0.0000
vt 1.0000 0.0000
vt 0.0000 1.0000
vt 0.0000 0.0000
vt 1.0000 0.0000
vt 0.0000 1.0000
vt 0.0000 0.0000
vt 1.0000 0.0000
vt 0.0000 1.0000
vt 0.0000 0.0000
vt 1.0000 0.0000
vt 0.0000 1.0000
vt 0.0000 0.0000
vt 1.0000 0.0000
vt 0.0000 1.0000
vt 0.0000 0.0000
vt 1.0000 0.0000
vt 0.0000 1.0000
vt 0.0000 0.0000
vt 1.0000 0.0000
vt 0.0000 1.0000
vt 0.0000 0.0000
vt 1.0000 0.0000
vt 0.0000 1.0000
vt 0.0000 0.0000
vt 1.0000 0.0000
vt 0.0000 1.0000
vt 0.0000 0.0000
vt 1.0000 0.0000
vt 0.0000 1.0000
vt 0.0000 0.0000
vt 1.0000 0.0000
vt 0.0000 1.0000
vt 0.0000 0.0000
vt 1.0000 0.0000
vt 0.0000 1.0000
vt 0.0000 0.0000
vt 1.0000 0.0000
vt 0.0000 1.0000
vt 0.0000 0.0000
vt 1.0000 0.0000
vt 0.0000 1.0000
vt 0.0000 0.0000
vt 1.0000 0.0000
vt 0.0000 1.0000
vt 0.0000 0.0000
vt 1.0000 0.0000
vt 0.0000 1.0000
vt 0.0000 0.0000
vt 1.0000 0.0000
vt 0.0000 1.0000
vt 0.0000 0.0000
vt 1.0000 0.0000
vt 0.0000 1.0000
vt 0.0000 0.0000
vt 1.0000 0.0000
vt 0.0000 1.0000
vt 0.0000 0.0000
vt 1.0000 0.0000
vt 0.0000 1.0000
vt 0.0000 0.0000
vt 1.0000 0.0000
vt 0.0000 1.0000
vt 0.0000 0.0000
vt 1.0000 0.0000
vt 0.0000 1.0000
vt 0.0000 0.0000
vt 0.2222 0.0843
vt 0.0096 0.4025
vt 0.4025 0.9904
vt 1.0000 0.0000
vt 0.0000 1.0000
vt 0.0000 0.0000
vt 1.0000 0.0000
vt 0.0000 1.0000
vt 0.0000 0.0000
vt 0.5975 0.0096
vt 0.0096 0.4025
vt 0.9904 0.5975
vt 1.0000 1.0000
vt 1.0000 1.0000
vt 1.0000 1.0000
vt 1.0000 1.0000
vt 1.0000 1.0000
vt 1.0000 1.0000
vt 1.0000 1.0000
vt 1.0000 1.0000
vt 1.0000 1.0000
vt 1.0000 1.0000
vt 1.0000 1.0000
vt 1.0000 1.0000
vt 1.0000 1.0000
vt 1.0000 1.0000
vt 1.0000 1.0000
vt 1.0000 1.0000
vt 1.0000 1.0000
vt 1.0000 1.0000
vt 1.0000 1.0000
vt 1.0000 1.0000
vt 1.0000 1.0000
vt 1.0000 1.0000
vt 1.0000 1.0000
vt 1.0000 1.0000
vt 1.0000 1.0000
vt 1.0000 1.0000
vt 1.0000 1.0000
vt 1.0000 1.0000
vt 1.0000 1.0000
vt 1.0000 1.0000
vt 0.5000 1.0000
vt 0.7778 0.9157
vt 0.5975 0.9904
vt 0.6913 0.9619
vt 0.8536 0.8536
vt 0.9157 0.7778
vt 0.9619 0.6913
vt 0.9904 0.5975
vt 1.0000 0.5000
vt 0.9157 0.2222
vt 0.9904 0.4025
vt 0.9619 0.3087
vt 0.8536 0.1464
vt 0.5975 0.0096
vt 0.7778 0.0843
vt 0.6913 0.0381
vt 0.5000 0.0000
vt 0.4025 0.0096
vt 0.3087 0.0381
vt 0.1464 0.1464
vt 0.0843 0.2222
vt 0.0381 0.3087
vt 0.0000 0.5000
vt 0.0096 0.5975
vt 0.0381 0.6913
vt 0.0843 0.7778
vt 0.1464 0.8536
vt 0.2222 0.9157
vt 0.3087 0.9619
vt 1.0000 1.0000
vt 1.0000 1.0000
vt 0.4025 0.9904
vt 0.5000 1.0000
vt 0.7778 0.9157
vt 0.5975 0.9904
vt 0.6913 0.9619
vt 0.8536 0.8536
vt 0.9157 0.7778
vt 0.9619 0.6913
vt 1.0000 0.5000
vt 0.9904 0.4025
vt 0.9619 0.3087
vt 0.9157 0.2222
vt 0.8536 0.1464
vt 0.7778 0.0843
vt 0.6913 0.0381
vt 0.5000 0.0000
vt 0.4025 0.0096
vt 0.3087 0.0381
vt 0.2222 0.0843
vt 0.1464 0.1464
vt 0.0843 0.2222
vt 0.0381 0.3087
vt 0.0000 0.5000
vt 0.0096 0.5975
vt 0.0381 0.6913
vt 0.0843 0.7778
vt 0.1464 0.8536
vt 0.2222 0.9157
vt 0.3087 0.9619
vn 0.0980 0.9952 0.0000
vn 0.2903 0.9569 0.0000
vn 0.4714 0.8819 0.0000
vn 0.6344 0.7730 0.0000
vn 0.7730 0.6344 0.0000
vn 0.8819 0.4714 0.0000
vn 0.9569 0.2903 0.0000
vn 0.9952 0.0980 0.0000
vn 0.9952 -0.0980 0.0000
vn 0.9569 -0.2903 -0.0000
vn 0.8819 -0.4714 0.0000
vn 0.7730 -0.6344 -0.0000
vn 0.6344 -0.7730 -0.0000
vn 0.4714 -0.8819 -0.0000
vn 0.2903 -0.9569 -0.0000
vn 0.0980 -0.9952 -0.0000
vn -0.0980 -0.9952 -0.0000
vn -0.2903 -0.9569 -0.0000
vn -0.4714 -0.8819 -0.0000
vn -0.6344 -0.7730 -0.0000
vn -0.7730 -0.6344 -0.0000
vn -0.8819 -0.4714 -0.0000
vn -0.9569 -0.2903 0.0000
vn -0.9952 -0.0980 -0.0000
vn -0.9952 0.0980 0.0000
vn -0.9569 0.2903 0.0000
vn -0.8819 0.4714 0.0000
vn -0.7730 0.6344 0.0000
vn -0.6344 0.7730 0.0000
vn -0.4714 0.8819 0.0000
vn 0.0000 -0.0000 1.0000
vn -0.2903 0.9569 0.0000
vn -0.0980 0.9952 0.0000
vn 0.0000 0.0000 -1.0000
usemtl Material.001
s off
f 6/5/2 7/6/2 5/7/2
f 8/8/3 9/9/3 7/10/3
f 10/11/4 11/12/4 9/13/4
f 12/14/5 13/15/5 11/16/5
f 14/17/6 15/18/6 13/19/6
f 16/20/7 17/21/7 15/22/7
f 18/23/8 19/24/8 17/25/8
f 20/26/9 21/27/9 19/28/9
f 22/29/10 23/30/10 21/31/10
f 24/32/11 25/33/11 23/34/11
f 26/35/12 27/36/12 25/37/12
f 28/38/13 29/39/13 27/40/13
f 30/41/14 31/42/14 29/43/14
f 32/44/15 33/45/15 31/46/15
f 34/47/16 35/48/16 33/49/16
f 36/50/17 37/51/17 35/52/17
f 38/53/18 39/54/18 37/55/18
f 40/56/19 41/57/19 39/58/19
f 42/59/20 43/60/20 41/61/20
f 44/62/21 45/63/21 43/64/21
f 46/65/22 47/66/22 45/67/22
f 48/68/23 49/69/23 47/70/23
f 50/71/24 51/72/24 49/73/24
f 52/74/25 53/75/25 51/76/25
f 54/77/26 55/78/26 53/79/26
f 56/80/27 57/81/27 55/82/27
f 58/83/28 59/84/28 57/85/28
f 60/86/29 61/87/29 59/88/29
f 62/89/30 63/90/30 61/91/30
f 64/92/31 65/93/31 63/94/31
f 34/95/32 26/96/32 10/97/32
f 66/98/33 67/99/33 65/100/33
f 68/101/34 5/102/34 67/103/34
f 35/104/35 51/105/35 19/106/35
f 6/5/2 8/107/2 7/6/2
f 8/8/3 10/108/3 9/9/3
f 10/11/4 12/109/4 11/12/4
f 12/14/5 14/110/5 13/15/5
f 14/17/6 16/111/6 15/18/6
f 16/20/7 18/112/7 17/21/7
f 18/23/8 20/113/8 19/24/8
f 20/26/9 22/114/9 21/27/9
f 22/29/10 24/115/10 23/30/10
f 24/32/11 26/116/11 25/33/11
f 26/35/12 28/117/12 27/36/12
f 28/38/13 30/118/13 29/39/13
f 30/41/14 32/119/14 31/42/14
f 32/44/15 34/120/15 33/45/15
f 34/47/16 36/121/16 35/48/16
f 36/50/17 38/122/17 37/51/17
f 38/53/18 40/123/18 39/54/18
f 40/56/19 42/124/19 41/57/19
f 42/59/20 44/125/20 43/60/20
f 44/62/21 46/126/21 45/63/21
f 46/65/22 48/127/22 47/66/22
f 48/68/23 50/128/23 49/69/23
f 50/71/24 52/129/24 51/72/24
f 52/74/25 54/130/25 53/75/25
f 54/77/26 56/131/26 55/78/26
f 56/80/27 58/132/27 57/81/27
f 58/83/28 60/133/28 59/84/28
f 60/86/29 62/134/29 61/87/29
f 62/89/30 64/135/30 63/90/30
f 64/92/31 66/136/31 65/93/31
f 10/97/32 8/137/32 66/138/32
f 6/139/32 68/140/32 66/138/32
f 66/138/32 64/141/32 62/142/32
f 62/142/32 60/143/32 58/144/32
f 58/144/32 56/145/32 50/146/32
f 54/147/32 52/148/32 50/146/32
f 50/146/32 48/149/32 42/150/32
f 46/151/32 44/152/32 42/150/32
f 42/150/32 40/153/32 38/154/32
f 38/154/32 36/155/32 34/95/32
f 34/95/32 32/156/32 26/96/32
f 30/157/32 28/158/32 26/96/32
f 26/96/32 24/159/32 22/160/32
f 22/160/32 20/161/32 26/96/32
f 18/162/32 16/163/32 14/164/32
f 14/164/32 12/165/32 10/97/32
f 8/137/32 6/139/32 66/138/32
f 66/138/32 62/142/32 10/97/32
f 56/145/32 54/147/32 50/146/32
f 48/149/32 46/151/32 42/150/32
f 42/150/32 38/154/32 34/95/32
f 32/156/32 30/157/32 26/96/32
f 26/96/32 20/161/32 18/162/32
f 18/162/32 14/164/32 26/96/32
f 10/97/32 62/142/32 58/144/32
f 58/144/32 50/146/32 42/150/32
f 42/150/32 34/95/32 10/97/32
f 26/96/32 14/164/32 10/97/32
f 10/97/32 58/144/32 42/150/32
f 66/98/33 68/166/33 67/99/33
f 68/101/34 6/167/34 5/102/34
f 67/168/35 5/169/35 11/170/35
f 7/171/35 9/172/35 11/170/35
f 11/170/35 13/173/35 15/174/35
f 15/174/35 17/175/35 11/170/35
f 19/106/35 21/176/35 23/177/35
f 23/177/35 25/178/35 19/106/35
f 27/179/35 29/180/35 35/104/35
f 31/181/35 33/182/35 35/104/35
f 35/104/35 37/183/35 39/184/35
f 39/184/35 41/185/35 43/186/35
f 43/186/35 45/187/35 47/188/35
f 47/188/35 49/189/35 51/105/35
f 51/105/35 53/190/35 55/191/35
f 55/191/35 57/192/35 59/193/35
f 59/193/35 61/194/35 63/195/35
f 63/195/35 65/196/35 59/193/35
f 5/169/35 7/171/35 11/170/35
f 11/170/35 17/175/35 19/106/35
f 19/106/35 25/178/35 27/179/35
f 29/180/35 31/181/35 35/104/35
f 35/104/35 39/184/35 51/105/35
f 43/186/35 47/188/35 51/105/35
f 51/105/35 55/191/35 67/168/35
f 59/193/35 65/196/35 67/168/35
f 67/168/35 11/170/35 19/106/35
f 19/106/35 27/179/35 35/104/35
f 39/184/35 43/186/35 51/105/35
f 55/191/35 59/193/35 67/168/35
f 67/168/35 19/106/35 51/105/35
o Plane.001
v -0.500000 0.000000 -0.501000
v 0.500000 0.000000 -0.501000
v -0.500000 1.000000 -0.501000
v 0.500000 1.000000 -0.501000
vt 0.9999 0.0001
vt 0.0001 0.9999
vt 0.0001 0.0001
vt 0.9999 0.9999
vn 0.0000 0.0000 1.0000
usemtl Material.002
s off
f 70/197/36 71/198/36 69/199/36
f 70/197/36 72/200/36 71/198/36
